<?xml version="1.0" standalone="no"?>
<!DOCTYPE svg PUBLIC "-//W3C//DTD SVG 20010904//EN"
 "http://www.w3.org/TR/2001/REC-SVG-20010904/DTD/svg10.dtd">
<svg version="1.0" xmlns="http://www.w3.org/2000/svg"
 width="512.000000pt" height="512.000000pt" viewBox="0 0 512.000000 512.000000"
 preserveAspectRatio="xMidYMid meet">
<metadata>
Created by potrace 1.11, written by Peter Selinger 2001-2013
</metadata>
<g transform="translate(0.000000,512.000000) scale(0.100000,-0.100000)"
fill="#000000" stroke="none">
<path d="M0 2560 l0 -2560 2560 0 2560 0 0 2560 0 2560 -2560 0 -2560 0 0
-2560z m1264 422 c259 -732 294 -835 325 -957 l28 -110 12 45 c37 139 58 207
106 348 76 224 414 1174 418 1179 3 2 54 2 115 1 l110 -3 -327 -910 -326 -910
-106 -3 -105 -3 -287 803 c-158 442 -305 854 -327 916 l-40 112 113 0 112 0
179 -508z m1559 -144 c3 -462 7 -666 16 -697 58 -216 214 -320 476 -321 250 0
399 101 463 313 13 44 16 151 19 705 l4 652 105 0 105 0 -4 -662 c-4 -730 -3
-718 -68 -852 -78 -160 -227 -276 -414 -323 -100 -24 -333 -24 -438 0 -118 28
-210 79 -292 161 -80 81 -126 159 -157 273 -22 76 -22 95 -26 741 l-3 662 105
0 105 0 4 -652z"/>
</g>
</svg>
